<?xml version="1.0" encoding="UTF-8"?>
<svg version="1.1" xmlns="http://www.w3.org/2000/svg" width="500" height="500">
<path d="M0 0 C165 0 330 0 500 0 C500 165 500 330 500 500 C335 500 170 500 0 500 C0 335 0 170 0 0 Z " fill="#FFFFFF" transform="translate(0,0)"/>
<path d="M0 0 C154.44 0 308.88 0 468 0 C468 31.68 468 63.36 468 96 C313.56 96 159.12 96 0 96 C0 64.32 0 32.64 0 0 Z " fill="#FBFCFC" transform="translate(16,202)"/>
<path d="M0 0 C154.44 0 308.88 0 468 0 C468 31.68 468 63.36 468 96 C313.56 96 159.12 96 0 96 C0 64.32 0 32.64 0 0 Z M3 3 C3 7.95 3 12.9 3 18 C56.46 18 109.92 18 165 18 C165 37.8 165 57.6 165 78 C111.54 78 58.08 78 3 78 C3 82.95 3 87.9 3 93 C155.46 93 307.92 93 465 93 C465 82.11 465 71.22 465 60 C462.69 59.67 460.38 59.34 458 59 C457.34 58.01 456.68 57.02 456 56 C453.79274927 55.63637182 453.79274927 55.63637182 451.375 55.8125 C450.55773437 55.83957031 449.74046875 55.86664063 448.8984375 55.89453125 C448.27195312 55.92933594 447.64546875 55.96414063 447 56 C446.67 57.32 446.34 58.64 446 60 C443.36 60 440.72 60 438 60 C442.95 47.625 442.95 47.625 448 35 C451.96 34.505 451.96 34.505 456 34 C456.23783203 34.85658203 456.23783203 34.85658203 456.48046875 35.73046875 C458.56953464 42.99026126 461.21646302 49.98064587 464 57 C464.33 57 464.66 57 465 57 C465 39.18 465 21.36 465 3 C312.54 3 160.08 3 3 3 Z " fill="#020202" transform="translate(16,202)"/>
<path d="M0 0 C35.97 0 71.94 0 109 0 C109 19.8 109 39.6 109 60 C73.03 60 37.06 60 0 60 C0 40.2 0 20.4 0 0 Z " fill="#0DCFE2" transform="translate(181,220)"/>
<path d="M0 0 C4.08375 -0.0928125 4.08375 -0.0928125 8.25 -0.1875 C9.10110352 -0.21481201 9.95220703 -0.24212402 10.82910156 -0.27026367 C14.22214265 -0.30763374 16.4650784 -0.27366159 19.52734375 1.29296875 C21 3 21 3 21.3125 6.5 C21 10 21 10 20 13 C20.99 14.485 20.99 14.485 22 16 C22.54640069 21.24544666 22.54640069 21.24544666 20.6875 23.8125 C16.71890814 26.60521279 12.43761765 26.1146127 7.8125 26.0625 C5.234375 26.041875 2.65625 26.02125 0 26 C0 17.42 0 8.84 0 0 Z " fill="#040404" transform="translate(323,236)"/>
<path d="M0 0 C2.05078125 0.03255208 4.1015625 0.06510417 6.15234375 0.09765625 C7.82177751 4.24238075 9.48742764 8.38861519 11.15234375 12.53515625 C11.62929688 13.71916016 12.10625 14.90316406 12.59765625 16.12304688 C13.04882812 17.24775391 13.5 18.37246094 13.96484375 19.53125 C14.38378906 20.57337646 14.80273438 21.61550293 15.234375 22.68920898 C16.15234375 25.09765625 16.15234375 25.09765625 16.15234375 26.09765625 C14.87359375 26.15953125 13.59484375 26.22140625 12.27734375 26.28515625 C11.19839844 26.33736328 11.19839844 26.33736328 10.09765625 26.390625 C9.45570313 26.29394531 8.81375 26.19726562 8.15234375 26.09765625 C7.49234375 25.10765625 6.83234375 24.11765625 6.15234375 23.09765625 C3.95779694 22.51771926 3.95779694 22.51771926 1.52734375 22.41015625 C0.71007812 22.34441406 -0.1071875 22.27867187 -0.94921875 22.2109375 C-1.57570313 22.17355469 -2.2021875 22.13617188 -2.84765625 22.09765625 C-3.17765625 23.41765625 -3.50765625 24.73765625 -3.84765625 26.09765625 C-6.48765625 26.09765625 -9.12765625 26.09765625 -11.84765625 26.09765625 C-9.95414253 20.20672467 -7.88195594 14.39536947 -5.72265625 8.59765625 C-5.45694824 7.87900391 -5.19124023 7.16035156 -4.91748047 6.41992188 C-2.56153182 0.13538752 -2.56153182 0.13538752 0 0 Z " fill="#070707" transform="translate(303.84765625,235.90234375)"/>
<path d="M0 0 C2.31 0 4.62 0 7 0 C7.06058594 1.21558594 7.12117188 2.43117187 7.18359375 3.68359375 C7.26798332 5.26824228 7.3526321 6.85287702 7.4375 8.4375 C7.47681641 9.23994141 7.51613281 10.04238281 7.55664062 10.86914062 C7.4054296 14.75239561 7.4054296 14.75239561 9 18 C10.65 18 12.3 18 14 18 C14.495 9.09 14.495 9.09 15 0 C17.64 0 20.28 0 23 0 C23.08138426 2.87557703 23.14067851 5.74882262 23.1875 8.625 C23.21263672 9.43324219 23.23777344 10.24148437 23.26367188 11.07421875 C23.32547782 16.14230591 22.87955468 19.63703837 20 24 C15.54757426 26.96828383 11.22223487 26.63369224 6 26 C2.38308725 23.90219061 1.31708591 22.95125774 0 19 C-0.0806622 17.51876453 -0.10761193 16.03417796 -0.09765625 14.55078125 C-0.09443359 13.70322266 -0.09121094 12.85566406 -0.08789062 11.98242188 C-0.07951172 11.10134766 -0.07113281 10.22027344 -0.0625 9.3125 C-0.05798828 8.41982422 -0.05347656 7.52714844 -0.04882812 6.60742188 C-0.03704983 4.40488013 -0.02060164 2.20247401 0 0 Z " fill="#080808" transform="translate(349,236)"/>
<path d="M0 0 C3.98066095 1.57724302 5.60667274 2.41000911 8 6 C8 6.99 8 7.98 8 9 C4.625 9.125 4.625 9.125 1 9 C0.34 8.34 -0.32 7.68 -1 7 C-3.06874034 6.3574765 -3.06874034 6.3574765 -5 6 C-5 7.32 -5 8.64 -5 10 C-4.39671875 10.09796875 -3.7934375 10.1959375 -3.171875 10.296875 C0.51937477 10.98749592 3.39985697 11.60478386 6.5625 13.6875 C8.63792819 17.02623231 8.61879823 19.1496999 8 23 C5.78314587 25.98128659 4.04467522 26.83397965 0.39453125 27.4140625 C-4.46493627 27.66326596 -7.1386259 27.60802878 -11.1875 24.75 C-13 22 -13 22 -13 18 C-9.625 17.8125 -9.625 17.8125 -6 18 C-5.34 18.99 -4.68 19.98 -4 21 C-2.68 21 -1.36 21 0 21 C-0.33 20.01 -0.66 19.02 -1 18 C-2.73636826 17.12472786 -2.73636826 17.12472786 -4.8125 16.5625 C-8.40459892 15.30268113 -10.87534335 14.32554954 -13 11 C-13.07534495 6.78068271 -12.66424168 4.76192428 -9.875 1.5625 C-6.2288272 -0.41911565 -4.10527787 -0.50415693 0 0 Z " fill="#0D0D0D" transform="translate(444,235)"/>
<path d="M0 0 C3.98066095 1.57724302 5.60667274 2.41000911 8 6 C8 6.99 8 7.98 8 9 C4.625 9.125 4.625 9.125 1 9 C0.34 8.34 -0.32 7.68 -1 7 C-3.06874034 6.3574765 -3.06874034 6.3574765 -5 6 C-5 7.32 -5 8.64 -5 10 C-4.39671875 10.09796875 -3.7934375 10.1959375 -3.171875 10.296875 C0.51937477 10.98749592 3.39985697 11.60478386 6.5625 13.6875 C8.63792819 17.02623231 8.61879823 19.1496999 8 23 C5.78314587 25.98128659 4.04467522 26.83397965 0.39453125 27.4140625 C-4.46493627 27.66326596 -7.1386259 27.60802878 -11.1875 24.75 C-13 22 -13 22 -13 18 C-9.625 17.8125 -9.625 17.8125 -6 18 C-5.34 18.99 -4.68 19.98 -4 21 C-2.68 21 -1.36 21 0 21 C-0.33 20.01 -0.66 19.02 -1 18 C-2.73636826 17.12472786 -2.73636826 17.12472786 -4.8125 16.5625 C-8.40459892 15.30268113 -10.87534335 14.32554954 -13 11 C-13.07534495 6.78068271 -12.66424168 4.76192428 -9.875 1.5625 C-6.2288272 -0.41911565 -4.10527787 -0.50415693 0 0 Z " fill="#0D0D0D" transform="translate(420,235)"/>
<path d="M0 0 C5.94 0 11.88 0 18 0 C18 1.98 18 3.96 18 6 C14.37 6 10.74 6 7 6 C7 7.32 7 8.64 7 10 C10.3 10 13.6 10 17 10 C17 11.98 17 13.96 17 16 C13.7 16 10.4 16 7 16 C7 17.32 7 18.64 7 20 C10.63 20 14.26 20 18 20 C18 21.98 18 23.96 18 26 C12.06 26 6.12 26 0 26 C0 17.42 0 8.84 0 0 Z " fill="#040404" transform="translate(386,236)"/>
<path d="M0 0 C13.03275333 -0.60900716 13.03275333 -0.60900716 17.375 2.125 C19.31339525 5.55446851 19.80573518 7.13247112 19 11 C16.5 13.875 16.5 13.875 14 16 C14.268125 16.53625 14.53625 17.0725 14.8125 17.625 C16.20833333 20.41666667 17.60416667 23.20833333 19 26 C16.8125 25.9375 16.8125 25.9375 14 25 C12.765625 23.41015625 12.765625 23.41015625 11.5625 21.5 C9.62125136 18.47684527 9.35668325 18.10094809 5.6875 17.0625 C4.800625 17.041875 3.91375 17.02125 3 17 C3 19.97 3 22.94 3 26 C2.01 26 1.02 26 0 26 C0 17.42 0 8.84 0 0 Z " fill="#EEEEEE" transform="translate(107,236)"/>
<path d="M0 0 C2.34643555 0.19970703 2.34643555 0.19970703 5 1 C6.39379883 3.08544922 6.39379883 3.08544922 7.45703125 5.8046875 C8.04194336 7.26841797 8.04194336 7.26841797 8.63867188 8.76171875 C9.2197168 10.30279297 9.2197168 10.30279297 9.8125 11.875 C10.42254883 13.40447266 10.42254883 13.40447266 11.04492188 14.96484375 C14 22.50401786 14 22.50401786 14 26 C12.68 25.67 11.36 25.34 10 25 C9.505 22.525 9.505 22.525 9 20 C2.565 20.495 2.565 20.495 -4 21 C-4.99 23.475 -4.99 23.475 -6 26 C-7.32 26 -8.64 26 -10 26 C-7.24892128 17.09945121 -3.59701637 8.58356509 0 0 Z " fill="#EEEEEE" transform="translate(85,236)"/>
<path d="M0 0 C5.625 1.125 5.625 1.125 8.11328125 4.81640625 C8.63857422 5.58017578 9.16386719 6.34394531 9.70507812 7.13085938 C10.23552734 7.93330078 10.76597656 8.73574219 11.3125 9.5625 C12.13717773 10.77196289 12.13717773 10.77196289 12.97851562 12.00585938 C14.33211027 13.99505498 15.66781145 15.99640541 17 18 C17.33 12.06 17.66 6.12 18 0 C18.99 0 19.98 0 21 0 C21 8.58 21 17.16 21 26 C16.65088787 24.91272197 16.34200034 24.64315268 13.984375 21.18359375 C13.45585937 20.41982422 12.92734375 19.65605469 12.3828125 18.86914062 C11.84398437 18.06669922 11.30515625 17.26425781 10.75 16.4375 C10.19570312 15.63119141 9.64140625 14.82488281 9.0703125 13.99414062 C7.70355287 12.00291323 6.35045292 10.00232248 5 8 C4.67 13.94 4.34 19.88 4 26 C2.68 26 1.36 26 0 26 C0 17.42 0 8.84 0 0 Z " fill="#E8E8E8" transform="translate(135,236)"/>
<path d="M0 0 C0.99 0 1.98 0 3 0 C4.32 3.3 5.64 6.6 7 10 C7.99 6.7 8.98 3.4 10 0 C11.65 0.33 13.3 0.66 15 1 C15.99 4.63 16.98 8.26 18 12 C18.99 8.04 19.98 4.08 21 0 C22.32 0 23.64 0 25 0 C23.64746536 6.45054982 21.96939767 12.71105679 20 19 C18.35 19 16.7 19 15 19 C14.01 15.37 13.02 11.74 12 8 C11.01 11.63 10.02 15.26 9 19 C7.35 19 5.7 19 4 19 C3.32713788 16.58490559 2.66153988 14.16819644 2 11.75 C1.71382812 10.72712891 1.71382812 10.72712891 1.421875 9.68359375 C0.50042956 6.29399088 0 3.54221024 0 0 Z " fill="#EF3B3C" transform="translate(201,240)"/>
<path d="M0 0 C1.32 0 2.64 0 4 0 C4 2.31 4 4.62 4 7 C6.31 7 8.62 7 11 7 C11 4.69 11 2.38 11 0 C12.65 0 14.3 0 16 0 C16 6.27 16 12.54 16 19 C14.35 19 12.7 19 11 19 C11 16.36 11 13.72 11 11 C8.69 11 6.38 11 4 11 C4 13.64 4 16.28 4 19 C2.68 19 1.36 19 0 19 C0 12.73 0 6.46 0 0 Z " fill="#E34245" transform="translate(253,240)"/>
<path d="M0 0 C5.28 0 10.56 0 16 0 C16 0.99 16 1.98 16 3 C11.71 3 7.42 3 3 3 C3 5.64 3 8.28 3 11 C6.96 11 10.92 11 15 11 C15 11.99 15 12.98 15 14 C11.04 14 7.08 14 3 14 C3 16.97 3 19.94 3 23 C7.29 23 11.58 23 16 23 C16 23.99 16 24.98 16 26 C10.72 26 5.44 26 0 26 C0 17.42 0 8.84 0 0 Z " fill="#F8F8F8" transform="translate(53,236)"/>
<path d="M0 0 C0.99 0 1.98 0 3 0 C3 7.59 3 15.18 3 23 C7.29 23 11.58 23 16 23 C16 23.99 16 24.98 16 26 C10.72 26 5.44 26 0 26 C0 17.42 0 8.84 0 0 Z " fill="#FDFDFD" transform="translate(29,236)"/>
<path d="M0 0 C8.625 -0.25 8.625 -0.25 12 2 C12.3125 5 12.3125 5 12 8 C10 10 10 10 7.6171875 10.1953125 C6.71226563 10.17210937 5.80734375 10.14890625 4.875 10.125 C2.461875 10.063125 2.461875 10.063125 0 10 C0 6.7 0 3.4 0 0 Z " fill="#040404" transform="translate(110,239)"/>
<path d="M0 0 C4.62 0 9.24 0 14 0 C14 0.99 14 1.98 14 3 C12.35 3 10.7 3 9 3 C9 8.28 9 13.56 9 19 C7.68 19 6.36 19 5 19 C5 13.72 5 8.44 5 3 C3.35 3 1.7 3 0 3 C0 2.01 0 1.02 0 0 Z " fill="#F43738" transform="translate(236,240)"/>
<path d="M0 0 C1.32 0 2.64 0 4 0 C4 6.27 4 12.54 4 19 C2.68 19 1.36 19 0 19 C0 12.73 0 6.46 0 0 Z " fill="#EC3D3E" transform="translate(229,240)"/>
<path d="M0 0 C2.34914492 2.34914492 2.73140357 3.95679446 3.625 7.125 C3.88539062 8.03507813 4.14578125 8.94515625 4.4140625 9.8828125 C4.70410156 10.93082031 4.70410156 10.93082031 5 12 C1.7 12 -1.6 12 -5 12 C-4.35758106 10.186287 -3.71096881 8.37405876 -3.0625 6.5625 C-2.70285156 5.55316406 -2.34320313 4.54382813 -1.97265625 3.50390625 C-1 1 -1 1 0 0 Z " fill="#111111" transform="translate(87,241)"/>
<path d="M0 0 C4.875 0.875 4.875 0.875 6 2 C8.32817964 2.36760731 10.6618385 2.70241581 13 3 C13 3.33 13 3.66 13 4 C11.02 4 9.04 4 7 4 C7 4.66 7 5.32 7 6 C4.69 5.34 2.38 4.68 0 4 C0 2.68 0 1.36 0 0 Z " fill="#E2E2E2" transform="translate(439,241)"/>
<path d="M0 0 C4.875 0.875 4.875 0.875 6 2 C8.32817964 2.36760731 10.6618385 2.70241581 13 3 C13 3.33 13 3.66 13 4 C11.02 4 9.04 4 7 4 C7 4.66 7 5.32 7 6 C4.69 5.34 2.38 4.68 0 4 C0 2.68 0 1.36 0 0 Z " fill="#E2E2E2" transform="translate(415,241)"/>
<path d="M0 0 C1.98 0 3.96 0 6 0 C6.33 1.65 6.66 3.3 7 5 C4.69 5 2.38 5 0 5 C0 3.35 0 1.7 0 0 Z " fill="#E1E1E1" transform="translate(330,251)"/>
<path d="M0 0 C1.98 0 3.96 0 6 0 C6.5625 1.9375 6.5625 1.9375 7 4 C6 5 6 5 2.9375 5.0625 C1.4834375 5.0315625 1.4834375 5.0315625 0 5 C0 3.35 0 1.7 0 0 Z " fill="#DBDBDB" transform="translate(330,241)"/>
<path d="M0 0 C1.67542976 0.28604898 3.34385343 0.61781233 5 1 C5 2.32 5 3.64 5 5 C3.35 4.67 1.7 4.34 0 4 C-0.33 3.01 -0.66 2.02 -1 1 C-0.67 0.67 -0.34 0.34 0 0 Z " fill="#DEDEDE" transform="translate(439,252)"/>
<path d="M0 0 C1.67542976 0.28604898 3.34385343 0.61781233 5 1 C5 2.32 5 3.64 5 5 C3.35 4.67 1.7 4.34 0 4 C-0.33 3.01 -0.66 2.02 -1 1 C-0.67 0.67 -0.34 0.34 0 0 Z " fill="#DEDEDE" transform="translate(415,252)"/>
<path d="M0 0 C2.50037734 2.17424117 3.43628586 3.73045798 4 7 C2.02 7 0.04 7 -2 7 C-1.34 4.69 -0.68 2.38 0 0 Z " fill="#D5D5D5" transform="translate(467,246)"/>
<path d="M0 0 C2.50037734 2.17424117 3.43628586 3.73045798 4 7 C2.02 7 0.04 7 -2 7 C-1.34 4.69 -0.68 2.38 0 0 Z " fill="#D5D5D5" transform="translate(305,246)"/>
</svg>
